<?xml version="1.0" encoding="iso-8859-1"?>
<!-- Generator: Adobe Illustrator 19.0.0, SVG Export Plug-In . SVG Version: 6.00 Build 0)  -->
<svg version="1.1" id="Capa_1" xmlns="http://www.w3.org/2000/svg" xmlns:xlink="http://www.w3.org/1999/xlink" x="0px" y="0px"
	 viewBox="0 0 448 448" style="enable-background:new 0 0 448 448;" xml:space="preserve">
<g>
	<g>
		<path d="M224,60.568c-35.344,0-64,28.656-64,64c0,7.994,0.898,15.955,2.393,23.722c5.213,1.558,10.973,2.998,17.317,4.23
			c-2.354-8.935-3.71-18.414-3.71-27.953c0-26.465,21.535-48,48-48s48,21.535,48,48c0,9.549-1.355,19.037-3.715,27.981
			c6.346-1.226,12.106-2.66,17.314-4.211c1.498-7.782,2.401-15.76,2.401-23.77C288,89.224,259.344,60.568,224,60.568z"/>
	</g>
</g>
<g>
	<g>
		<path d="M224,204.568c-17.68,0-32,14.32-32,32s14.32,32,32,32s32-14.32,32-32S241.68,204.568,224,204.568z M224,252.568
			c-8.817,0-16-7.183-16-16c0-8.817,7.183-16,16-16c8.817,0,16,7.183,16,16C240,245.385,232.817,252.568,224,252.568z"/>
	</g>
</g>
<g>
	<g>
		<path d="M96,180.568c-17.68,0-32,14.32-32,32s14.32,32,32,32s32-14.32,32-32S113.68,180.568,96,180.568z M96,228.568
			c-8.817,0-16-7.183-16-16c0-8.817,7.183-16,16-16c8.817,0,16,7.183,16,16C112,221.385,104.817,228.568,96,228.568z"/>
	</g>
</g>
<g>
	<g>
		<path d="M352,180.568c-17.68,0-32,14.32-32,32s14.32,32,32,32s32-14.32,32-32S369.68,180.568,352,180.568z M352,228.568
			c-8.817,0-16-7.183-16-16c0-8.817,7.183-16,16-16c8.817,0,16,7.183,16,16C368,221.385,360.817,228.568,352,228.568z"/>
	</g>
</g>
<g>
	<g>
		<ellipse transform="matrix(0.5219 -0.853 0.853 0.5219 -22.2139 234.2708)" cx="197.882" cy="136.952" rx="10.128" ry="20.256"/>
	</g>
</g>
<g>
	<g>
		<ellipse transform="matrix(0.853 -0.5219 0.5219 0.853 -34.7183 150.6187)" cx="250.025" cy="136.943" rx="20.256" ry="10.128"/>
	</g>
</g>
<g>
	<g>
		<path d="M448,206.232c0-32.736-38.305-61.617-96.687-78.946C344.641,62.92,290.096,12.568,224,12.568
			S103.359,62.92,96.687,127.287C38.305,144.616,0,173.48,0,206.232c0,32.641,38.096,61.439,96.191,78.783l-58.16,81.935
			C34.145,371.304,32,375.865,32,380.568c0,30.305,85.969,54.863,192,54.863s192-24.558,192-54.863
			c0-4.703-2.145-9.264-6.047-13.617l-58.16-81.935C409.904,267.672,448,238.873,448,206.232z M224,28.568
			c61.855,0,112,50.145,112,112c0,0-32.672,32-112,32s-112-32-112-32C112,78.713,162.145,28.568,224,28.568z M389.953,365.656
			l-5.377,13.183c4.866,1.984,9.088,4.049,12.623,6.16c-12.478,11.809-67.664,34.432-173.215,34.432
			c-105.393,0-160.561-22.543-173.137-34.367c2.416-1.457,5.057-2.897,8.145-4.289l-4.607-10.142l58.318-81.152
			c32.816,8.079,70.754,12.767,111.297,12.767c40.545,0,78.465-4.687,111.282-12.752L389.953,365.656z M224,286.232
			c-122.576,0-208-42.16-208-80c0-22.481,31.217-46.527,80-62v3.054l4.801,4.705c1.535,1.505,38.32,36.577,123.199,36.577
			c84.881,0,121.664-35.072,123.199-36.576l4.801-4.706v-3.054c48.785,15.455,80,39.519,80,62
			C432,244.056,346.576,286.232,224,286.232z"/>
	</g>
</g>
<g>
	<g>
		<path d="M169.92,342.455c-5.359,0.402-10.638,0.85-15.806,1.346l1.566,15.935c5.041-0.496,10.191-0.928,15.426-1.313
			L169.92,342.455z"/>
	</g>
</g>
<g>
	<g>
		<path d="M233.297,340.616l-0.191,16c5.215,0.065,10.398,0.176,15.504,0.336l0.527-16
			C243.92,340.776,238.641,340.664,233.297,340.616z"/>
	</g>
</g>
<g>
	<g>
		<path d="M272.88,342.119l-1.025,15.969c5.25,0.336,10.4,0.736,15.457,1.183l1.39-15.935
			C283.534,342.888,278.255,342.455,272.88,342.119z"/>
	</g>
</g>
<g>
	<g>
		<path d="M209.52,340.697c-5.344,0.094-10.639,0.254-15.84,0.447l0.625,16c5.119-0.209,10.287-0.354,15.504-0.447L209.52,340.697z"
			/>
	</g>
</g>
<g>
	<g>
		<path d="M130.431,346.568c-5.439,0.752-10.687,1.55-15.775,2.416l2.721,15.775c4.912-0.848,10-1.649,15.248-2.351L130.431,346.568
			z"/>
	</g>
</g>
<g>
	<g>
		<path d="M351.744,352.537l-3.439,15.631c5.199,1.137,10.176,2.336,14.848,3.633l4.224-15.44
			C362.449,355,357.232,353.736,351.744,352.537z"/>
	</g>
</g>
<g>
	<g>
		<path d="M312.415,345.865l-2.064,15.871c5.248,0.672,10.336,1.393,15.266,2.191l2.558-15.775
			C323.087,347.32,317.824,346.568,312.415,345.865z"/>
	</g>
</g>
<g>
	<g>
		<path d="M91.105,353.688c-5.488,1.296-10.689,2.655-15.57,4.095l4.496,15.346c4.625-1.346,9.553-2.641,14.754-3.873
			L91.105,353.688z"/>
	</g>
</g>
<g>
</g>
<g>
</g>
<g>
</g>
<g>
</g>
<g>
</g>
<g>
</g>
<g>
</g>
<g>
</g>
<g>
</g>
<g>
</g>
<g>
</g>
<g>
</g>
<g>
</g>
<g>
</g>
<g>
</g>
</svg>
